<svg width="52" height="65" viewBox="0 0 52 65" fill="none" xmlns="http://www.w3.org/2000/svg">
<path d="M27.432 52.424H51.624V65H1.896V54.056C4.84 51.624 7.976 49.064 11.304 46.376C14.632 43.624 17.672 40.84 20.424 38.024C23.24 35.144 25.544 32.264 27.336 29.384C29.192 26.504 30.12 23.72 30.12 21.032C30.12 18.984 29.48 17.352 28.2 16.136C26.984 14.92 24.936 14.312 22.056 14.312C20.264 14.312 17.896 14.632 14.952 15.272C12.072 15.848 9.032 17 5.832 18.728L0.36 7.688C4.584 4.936 8.872 2.984 13.224 1.832C17.576 0.615995 21.608 0.00799561 25.32 0.00799561C32.744 0.00799561 38.472 1.768 42.504 5.288C46.536 8.808 48.552 13.768 48.552 20.168C48.552 23.368 47.88 26.44 46.536 29.384C45.192 32.264 43.496 35.048 41.448 37.736C39.4 40.424 37.096 42.952 34.536 45.32C31.976 47.688 29.512 49.864 27.144 51.848L27.432 52.424Z" fill="#EFEFEF"/>
</svg>
