<svg width="93" height="93" viewBox="0 0 93 93" fill="none" xmlns="http://www.w3.org/2000/svg">
<circle cx="46.5" cy="46.5" r="46.5" fill="#E01E2E"/>
<path d="M67.5205 59.5935V33.4063C67.5205 27.7289 57.8957 22.9314 46.5 22.9314C35.1042 22.9314 25.4794 27.7289 25.4794 33.4063V59.5935C25.4794 65.2709 35.1042 70.0684 46.5 70.0684C57.8957 70.0684 67.5205 65.2709 67.5205 59.5935ZM46.5 28.1688C56.1983 28.1688 62.0841 32.1153 62.2654 33.3906C62.0841 34.6973 56.1983 38.6437 46.5 38.6437C36.8016 38.6437 30.9159 34.6973 30.7346 33.422C30.9159 32.1153 36.8016 28.1688 46.5 28.1688ZM30.7346 40.2333C34.6207 42.4513 40.291 43.8812 46.5 43.8812C52.7089 43.8812 58.3792 42.4513 62.2654 40.2333V46.4842C62.0841 47.7909 56.1983 51.7373 46.5 51.7373C36.8016 51.7373 30.9159 47.7909 30.7346 46.4999V40.2333ZM30.7346 59.5935V53.3269C34.6207 55.545 40.291 56.9748 46.5 56.9748C52.7089 56.9748 58.3792 55.545 62.2654 53.3269V59.5778C62.0841 60.8845 56.1983 64.8309 46.5 64.8309C36.8016 64.8309 30.9159 60.8845 30.7346 59.5935Z" fill="white"/>
</svg>
