<svg width="73" height="73" viewBox="0 0 73 73" fill="none" xmlns="http://www.w3.org/2000/svg">
<circle cx="36.5" cy="36.5" r="36.5" fill="#E01E2E"/>
<path d="M51.3 28.25H43.9V22.7C43.9 20.6594 42.2406 19 40.2 19H32.8C30.7594 19 29.1 20.6594 29.1 22.7V31.95H21.7C19.6594 31.95 18 33.6095 18 35.65V52.3C18 52.7906 18.1949 53.2612 18.5419 53.6082C18.8888 53.9551 19.3593 54.15 19.85 54.15H53.15C53.6407 54.15 54.1112 53.9551 54.4581 53.6082C54.8051 53.2612 55 52.7906 55 52.3V31.95C55 29.9095 53.3405 28.25 51.3 28.25ZM21.7 35.65H29.1V50.45H21.7V35.65ZM32.8 33.8V22.7H40.2V50.45H32.8V33.8ZM51.3 50.45H43.9V31.95H51.3V50.45Z" fill="white"/>
</svg>
