<svg width="73" height="73" viewBox="0 0 73 73" fill="none" xmlns="http://www.w3.org/2000/svg">
<circle cx="36.5" cy="36.5" r="36.5" fill="#E01E2E"/>
<path d="M48.6 19.85C45.5401 19.85 43.05 22.3401 43.05 25.4C43.05 26.3287 43.3016 27.1908 43.7049 27.9623L41.6403 30.371C40.419 29.5414 38.9764 29.0985 37.5 29.1C36.1329 29.1 34.8637 29.4996 33.763 30.1471L31.1471 27.5312C31.6667 26.5959 31.9428 25.5449 31.95 24.475C31.95 20.9045 29.0455 18 25.475 18C21.9045 18 19 20.9045 19 24.475C19 28.0455 21.9045 30.95 25.475 30.95C26.5869 30.95 27.6173 30.6429 28.5312 30.1471L31.1471 32.763C30.4695 33.8923 30.1078 35.183 30.1 36.5C30.1 38.3444 30.803 40.0131 31.9222 41.3118L28.7921 44.442L28.8383 44.4883C28.0819 44.1063 27.2473 43.9049 26.4 43.9C23.3401 43.9 20.85 46.3901 20.85 49.45C20.85 52.5099 23.3401 55 26.4 55C29.4599 55 31.95 52.5099 31.95 49.45C31.95 48.5694 31.7262 47.7498 31.3617 47.0117L31.4079 47.058L35.0229 43.4431C35.8017 43.7206 36.6268 43.9 37.5 43.9C41.5811 43.9 44.9 40.5811 44.9 36.5C44.892 35.3508 44.6138 34.2196 44.0879 33.1978L46.4059 30.4931C47.0793 30.7854 47.8193 30.95 48.6 30.95C51.6599 30.95 54.15 28.4599 54.15 25.4C54.15 22.3401 51.6599 19.85 48.6 19.85ZM26.4 51.3C25.9093 51.3 25.4388 51.1051 25.0919 50.7581C24.7449 50.4112 24.55 49.9407 24.55 49.45C24.55 48.9594 24.7449 48.4888 25.0919 48.1419C25.4388 47.7949 25.9093 47.6 26.4 47.6C26.8907 47.6 27.3612 47.7949 27.7081 48.1419C28.0551 48.4888 28.25 48.9594 28.25 49.45C28.25 49.9407 28.0551 50.4112 27.7081 50.7581C27.3612 51.1051 26.8907 51.3 26.4 51.3ZM22.7 24.475C22.7 22.9451 23.9451 21.7 25.475 21.7C27.005 21.7 28.25 22.9451 28.25 24.475C28.25 26.005 27.005 27.25 25.475 27.25C23.9451 27.25 22.7 26.005 22.7 24.475ZM37.5 40.2C35.4594 40.2 33.8 38.5406 33.8 36.5C33.8 34.4594 35.4594 32.8 37.5 32.8C39.5406 32.8 41.2 34.4594 41.2 36.5C41.2 38.5406 39.5406 40.2 37.5 40.2ZM48.6 27.25C48.1094 27.25 47.6388 27.0551 47.2919 26.7081C46.9449 26.3612 46.75 25.8907 46.75 25.4C46.75 24.9093 46.9449 24.4388 47.2919 24.0919C47.6388 23.7449 48.1094 23.55 48.6 23.55C49.0907 23.55 49.5612 23.7449 49.9081 24.0919C50.2551 24.4388 50.45 24.9093 50.45 25.4C50.45 25.8907 50.2551 26.3612 49.9081 26.7081C49.5612 27.0551 49.0907 27.25 48.6 27.25Z" fill="white"/>
</svg>
