<svg width="73" height="73" viewBox="0 0 73 73" fill="none" xmlns="http://www.w3.org/2000/svg">
<circle cx="36.5" cy="36.5" r="36.5" fill="#E01E2E"/>
<path d="M53.3182 44.4545H19.6818C19.2358 44.4545 18.808 44.6222 18.4926 44.9205C18.1772 45.2189 18 45.6235 18 46.0455C18 46.4674 18.1772 46.872 18.4926 47.1704C18.808 47.4688 19.2358 47.6364 19.6818 47.6364H53.3182C53.7642 47.6364 54.192 47.4688 54.5074 47.1704C54.8228 46.872 55 46.4674 55 46.0455C55 45.6235 54.8228 45.2189 54.5074 44.9205C54.192 44.6222 53.7642 44.4545 53.3182 44.4545ZM53.3182 50.8182H19.6818C19.2358 50.8182 18.808 50.9858 18.4926 51.2841C18.1772 51.5825 18 51.9872 18 52.4091C18 52.831 18.1772 53.2357 18.4926 53.534C18.808 53.8324 19.2358 54 19.6818 54H53.3182C53.7642 54 54.192 53.8324 54.5074 53.534C54.8228 53.2357 55 52.831 55 52.4091C55 51.9872 54.8228 51.5825 54.5074 51.2841C54.192 50.9858 53.7642 50.8182 53.3182 50.8182ZM26.4091 28.5455C26.0765 28.5455 25.7513 28.6388 25.4747 28.8136C25.1981 28.9884 24.9826 29.2368 24.8553 29.5275C24.728 29.8182 24.6947 30.1381 24.7596 30.4467C24.8245 30.7553 24.9847 31.0388 25.2199 31.2613C25.4551 31.4838 25.7547 31.6353 26.081 31.6967C26.4072 31.7581 26.7454 31.7266 27.0527 31.6062C27.36 31.4858 27.6227 31.2818 27.8075 31.0202C27.9923 30.7586 28.0909 30.451 28.0909 30.1364C28.0909 29.7144 27.9137 29.3098 27.5983 29.0114C27.2829 28.7131 26.8551 28.5455 26.4091 28.5455ZM49.9545 19H23.0455C21.7073 19 20.424 19.5028 19.4778 20.3979C18.5316 21.293 18 22.5069 18 23.7727V36.5C18 37.7658 18.5316 38.9798 19.4778 39.8748C20.424 40.7699 21.7073 41.2727 23.0455 41.2727H49.9545C51.2927 41.2727 52.576 40.7699 53.5222 39.8748C54.4684 38.9798 55 37.7658 55 36.5V23.7727C55 22.5069 54.4684 21.293 53.5222 20.3979C52.576 19.5028 51.2927 19 49.9545 19ZM51.6364 36.5C51.6364 36.9219 51.4592 37.3266 51.1438 37.6249C50.8284 37.9233 50.4006 38.0909 49.9545 38.0909H23.0455C22.5994 38.0909 22.1716 37.9233 21.8562 37.6249C21.5408 37.3266 21.3636 36.9219 21.3636 36.5V23.7727C21.3636 23.3508 21.5408 22.9461 21.8562 22.6478C22.1716 22.3494 22.5994 22.1818 23.0455 22.1818H49.9545C50.4006 22.1818 50.8284 22.3494 51.1438 22.6478C51.4592 22.9461 51.6364 23.3508 51.6364 23.7727V36.5ZM36.5 25.3636C35.5021 25.3636 34.5266 25.6436 33.6969 26.168C32.8672 26.6924 32.2205 27.4378 31.8386 28.3099C31.4567 29.182 31.3568 30.1417 31.5515 31.0675C31.7462 31.9933 32.2267 32.8437 32.9323 33.5112C33.6379 34.1787 34.537 34.6332 35.5157 34.8174C36.4944 35.0015 37.5089 34.907 38.4308 34.5458C39.3527 34.1846 40.1407 33.5728 40.6951 32.7879C41.2495 32.0031 41.5455 31.0803 41.5455 30.1364C41.5455 28.8706 41.0139 27.6566 40.0677 26.7615C39.1215 25.8665 37.8381 25.3636 36.5 25.3636ZM36.5 31.7273C36.1674 31.7273 35.8422 31.634 35.5656 31.4592C35.2891 31.2843 35.0735 31.0359 34.9462 30.7452C34.8189 30.4545 34.7856 30.1346 34.8505 29.826C34.9154 29.5174 35.0756 29.2339 35.3108 29.0114C35.546 28.7889 35.8457 28.6374 36.1719 28.576C36.4981 28.5146 36.8363 28.5461 37.1436 28.6666C37.4509 28.787 37.7136 28.9909 37.8984 29.2525C38.0832 29.5141 38.1818 29.8217 38.1818 30.1364C38.1818 30.5583 38.0046 30.963 37.6892 31.2613C37.3738 31.5597 36.946 31.7273 36.5 31.7273ZM46.5909 28.5455C46.2583 28.5455 45.9331 28.6388 45.6565 28.8136C45.38 28.9884 45.1644 29.2368 45.0371 29.5275C44.9098 29.8182 44.8765 30.1381 44.9414 30.4467C45.0063 30.7553 45.1665 31.0388 45.4017 31.2613C45.6369 31.4838 45.9366 31.6353 46.2628 31.6967C46.589 31.7581 46.9272 31.7266 47.2345 31.6062C47.5418 31.4858 47.8045 31.2818 47.9893 31.0202C48.1741 30.7586 48.2727 30.451 48.2727 30.1364C48.2727 29.7144 48.0955 29.3098 47.7801 29.0114C47.4647 28.7131 47.037 28.5455 46.5909 28.5455Z" fill="white"/>
</svg>
