<svg width="73" height="73" viewBox="0 0 73 73" fill="none" xmlns="http://www.w3.org/2000/svg">
<circle cx="36.5" cy="36.5" r="36.5" fill="#E01E2E"/>
<path d="M51.3 26.4H45.75V22.7C45.75 20.6594 44.0905 19 42.05 19H30.95C28.9095 19 27.25 20.6594 27.25 22.7V26.4H21.7C19.6594 26.4 18 28.0595 18 30.1V50.45C18 52.4906 19.6594 54.15 21.7 54.15H51.3C53.3405 54.15 55 52.4906 55 50.45V30.1C55 28.0595 53.3405 26.4 51.3 26.4ZM43.9 30.1V50.45H29.1V30.1H43.9ZM42.05 22.7V26.4H30.95V22.7H42.05ZM21.7 30.1H25.4V50.45H21.7V30.1ZM47.6 50.45V30.1H51.3L51.3018 50.45H47.6Z" fill="white"/>
</svg>
